<svg width="65" height="66" viewBox="0 0 65 66" fill="none" xmlns="http://www.w3.org/2000/svg">
<path fill-rule="evenodd" clip-rule="evenodd" d="M12.3785 31.9987C15.3692 33.0251 17.7517 35.5281 18.7486 38.7011L18.8558 39.0227C19.9974 42.3886 19.5338 46.0119 17.6204 48.7293C17.272 49.2224 17.3497 49.8119 17.7168 50.0907L23.2696 54.3088C23.4652 54.4562 23.6555 54.4562 23.7734 54.4428C23.9074 54.4214 24.103 54.349 24.2611 54.1239L24.8802 53.2449C26.7266 50.6266 29.7013 49.0107 32.8422 48.9195C36.3689 48.8472 39.5365 50.4632 41.5089 53.3119L41.8252 53.7702C41.9833 53.9953 42.1762 54.0703 42.3129 54.0917C42.4308 54.1159 42.6238 54.1078 42.8167 53.9577L48.34 49.7905C48.7259 49.5011 48.8117 48.882 48.5249 48.4666L47.8281 47.4617C46.0326 44.8675 45.4993 41.5016 46.4024 38.4599C47.3833 35.1476 49.8783 32.5266 53.0807 31.4547L53.6194 31.2724C54.0509 31.1304 54.284 30.5944 54.1313 30.1013L52.0222 23.3453C51.923 23.0291 51.7194 22.887 51.6068 22.8281C51.446 22.745 51.2718 22.7316 51.1057 22.7879L50.1945 23.0907C47.0778 24.1278 43.6395 23.565 40.9998 21.5792L40.7103 21.3622C38.202 19.4755 36.7093 16.4338 36.72 13.2287L36.7253 12.4783C36.7253 12.1219 36.5565 11.8995 36.4547 11.7976C36.3582 11.6985 36.1947 11.5806 35.9642 11.5806L29.1385 11.5725C28.7205 11.5725 28.3801 11.9718 28.3775 12.4649L28.3748 13.1135C28.3614 16.3695 26.8365 19.4675 24.296 21.405L23.9503 21.6677C21.1551 23.7928 17.5105 24.3931 14.2088 23.2676C14.0829 23.2247 13.965 23.2327 13.8524 23.2917C13.7667 23.3346 13.6112 23.4445 13.5362 23.6883L11.3467 30.6453C11.1886 31.1518 11.4486 31.6798 11.939 31.8486L12.3785 31.9987ZM23.6666 59.8098C22.3641 59.8098 21.0992 59.3864 20.0326 58.5744L14.4799 54.3589C11.8268 52.349 11.2399 48.4819 13.1694 45.7404C14.1717 44.32 14.378 42.495 13.7885 40.7638L13.6411 40.3136C13.1506 38.7539 12.0304 37.5426 10.6449 37.0682H10.6423L10.2054 36.9155C6.94133 35.798 5.19939 32.3382 6.23651 29.0366L8.42331 22.0823C8.91909 20.5092 9.98837 19.2389 11.4355 18.5073C12.8505 17.7944 14.4504 17.6845 15.9458 18.1964C17.551 18.7431 19.3332 18.4456 20.708 17.4005L21.0537 17.1378C22.2757 16.2052 23.0127 14.6911 23.018 13.0912L23.0207 12.4454C23.0341 9.00437 25.781 6.21191 29.1389 6.21191H29.1496L35.9753 6.21995C37.5886 6.22263 39.1108 6.86045 40.2578 8.01548C41.445 9.20804 42.0935 10.8026 42.0882 12.5043L42.0828 13.252C42.0774 14.7688 42.7715 16.2026 43.9427 17.0816L44.2294 17.2986C45.4595 18.2232 47.0621 18.4885 48.5012 18.0061L49.4096 17.7033C50.9559 17.1888 52.6014 17.3147 54.0512 18.0571C55.5386 18.8181 56.6373 20.1286 57.1411 21.7499L59.2502 28.506C60.2686 31.7701 58.5052 35.2915 55.3242 36.3554L54.7855 36.5349C53.2419 37.0548 52.0279 38.3412 51.5428 39.9813C51.098 41.4847 51.3552 43.1382 52.2369 44.4085L52.9337 45.4134C54.8472 48.1791 54.2361 52.0596 51.5723 54.0668L46.0491 58.2367C44.7225 59.239 43.0958 59.6437 41.4637 59.3837C39.8183 59.1184 38.3819 58.2073 37.4198 56.8191L37.1036 56.3581C36.1656 55.0075 34.6649 54.1874 33.0918 54.2758C31.516 54.3187 30.1546 55.0664 29.2649 56.3313L28.6458 57.2103C27.6757 58.5851 26.2366 59.4829 24.5992 59.7402C24.2856 59.7884 23.9747 59.8098 23.6666 59.8098V59.8098ZM32.7429 28.9902C30.5266 28.9902 28.7231 30.7938 28.7231 33.0101C28.7231 35.2263 30.5266 37.0299 32.7429 37.0299C34.9592 37.0299 36.7627 35.2263 36.7627 33.0101C36.7627 30.7938 34.9592 28.9902 32.7429 28.9902M32.7397 42.3913C27.5675 42.3913 23.36 38.1839 23.36 33.0117C23.36 27.8395 27.5675 23.632 32.7397 23.632C37.9119 23.632 42.1193 27.8395 42.1193 33.0117C42.1193 38.1839 37.9119 42.3913 32.7397 42.3913" fill="#FCA49B"/>
</svg>
