<svg width="65" height="65" viewBox="0 0 65 65" fill="none" xmlns="http://www.w3.org/2000/svg">
<path fill-rule="evenodd" clip-rule="evenodd" d="M51.4953 56.2523C51.4953 57.8959 50.2118 59.2299 48.624 59.2299C47.0362 59.2299 45.7527 57.8959 45.7527 56.2523C45.7527 48.0429 39.3123 41.364 31.3961 41.364C23.4799 41.364 17.0395 48.0429 17.0395 56.2523C17.0395 57.8959 15.756 59.2299 14.1682 59.2299C12.5804 59.2299 11.2969 57.8959 11.2969 56.2523C11.2969 44.7585 20.3157 35.4086 31.3961 35.4086C42.4765 35.4086 51.4953 44.7585 51.4953 56.2523M31.3989 11.5867C34.5659 11.5867 37.1415 14.2577 37.1415 17.542C37.1415 20.8264 34.5659 23.4974 31.3989 23.4974C28.2318 23.4974 25.6562 20.8264 25.6562 17.542C25.6562 14.2577 28.2318 11.5867 31.3989 11.5867M31.392 29.4531C37.7261 29.4531 42.8772 24.1112 42.8772 17.5425C42.8772 10.9738 37.7261 5.63184 31.392 5.63184C25.0578 5.63184 19.9067 10.9738 19.9067 17.5425C19.9067 24.1112 25.0578 29.4531 31.392 29.4531" fill="#578F8C"/>
</svg>
