<svg width="65" height="65" viewBox="0 0 65 65" fill="none" xmlns="http://www.w3.org/2000/svg">
<path fill-rule="evenodd" clip-rule="evenodd" d="M38.9858 53.832C38.8062 53.832 38.6213 53.8239 38.4364 53.8052C36.0781 53.572 34.2289 51.9078 33.7198 49.5629L26.5296 16.3536L19.125 33.4567C18.6989 34.4376 17.7315 35.0727 16.6649 35.0727H8.62521C7.14323 35.0727 5.94531 33.8721 5.94531 32.3928C5.94531 30.9108 7.14323 29.7129 8.62521 29.7129H14.9069L21.6227 14.199C22.5741 12.0122 24.6697 10.7392 27.0522 10.9777C29.4105 11.2109 31.2596 12.8751 31.7688 15.22L38.959 48.4293L46.3635 31.3262C46.7896 30.3454 47.7544 29.7129 48.8236 29.7129H56.8633C58.3453 29.7129 59.5432 30.9108 59.5432 32.3928C59.5432 33.8721 58.3453 35.0727 56.8633 35.0727H50.5817L43.8658 50.5839C42.9895 52.6019 41.1109 53.832 38.9858 53.832" fill="#578F8C"/>
</svg>
