<svg width="89" height="89" viewBox="0 0 89 89" fill="none" xmlns="http://www.w3.org/2000/svg">
<g filter="url(#filter0_ii_201_18870)">
<path d="M55.7947 50.3361L77.7608 50.3361C82.2666 50.3361 84.5195 52.0919 84.5195 55.6036C84.5195 59.3159 82.5266 61.172 78.5406 61.172L52.8053 61.172C49.5125 61.172 47.173 60.1687 45.7865 58.162C44.4001 56.2557 43.7069 53.4464 43.7069 49.7341L43.7069 36.7912C43.7069 32.7779 44.3568 29.818 45.6566 27.9117C47.043 26.0054 49.3392 25.0522 52.5453 25.0522L78.4106 25.0522C82.4832 25.0522 84.5195 26.9586 84.5195 30.7712C84.5195 34.2829 82.2666 36.0387 77.7608 36.0387L55.6648 36.0387C50.7257 36.0387 48.2561 38.0955 48.2561 42.2091L48.2561 44.3161C48.2561 48.3294 50.769 50.3361 55.7947 50.3361Z" fill="url(#paint0_linear_201_18870)"/>
</g>
<g filter="url(#filter1_d_201_18870)">
<path d="M29.7248 46.7059L7.75877 46.7059C3.25292 46.7059 1 44.9501 1 41.4384C1 37.7261 2.99298 35.87 6.97892 35.87L32.7143 35.87C36.007 35.87 38.3466 36.8733 39.733 38.88C41.1194 40.7863 41.8126 43.5956 41.8126 47.3079L41.8126 60.2508C41.8126 64.2641 41.1627 67.2239 39.863 69.1303C38.4765 71.0366 36.1803 71.9897 32.9742 71.9897L7.10889 71.9897C3.0363 71.9897 1 70.0834 1 66.2708C1 62.7591 3.25292 61.0033 7.75877 61.0033L29.8548 61.0033C34.7939 61.0033 37.2634 58.9465 37.2634 54.8329L37.2634 52.7259C37.2634 48.7126 34.7505 46.7059 29.7248 46.7059Z" fill="url(#paint1_linear_201_18870)"/>
</g>
<defs>
<filter id="filter0_ii_201_18870" x="43.707" y="25.0522" width="40.8125" height="39.2104" filterUnits="userSpaceOnUse" color-interpolation-filters="sRGB">
<feFlood flood-opacity="0" result="BackgroundImageFix"/>
<feBlend mode="normal" in="SourceGraphic" in2="BackgroundImageFix" result="shape"/>
<feColorMatrix in="SourceAlpha" type="matrix" values="0 0 0 0 0 0 0 0 0 0 0 0 0 0 0 0 0 0 127 0" result="hardAlpha"/>
<feOffset dx="-0.772683" dy="1.54537"/>
<feComposite in2="hardAlpha" operator="arithmetic" k2="-1" k3="1"/>
<feColorMatrix type="matrix" values="0 0 0 0 0.160722 0 0 0 0 0.152778 0 0 0 0 0.183333 0 0 0 1 0"/>
<feBlend mode="normal" in2="shape" result="effect1_innerShadow_201_18870"/>
<feColorMatrix in="SourceAlpha" type="matrix" values="0 0 0 0 0 0 0 0 0 0 0 0 0 0 0 0 0 0 127 0" result="hardAlpha"/>
<feOffset dy="3.09073"/>
<feGaussianBlur stdDeviation="1.54537"/>
<feComposite in2="hardAlpha" operator="arithmetic" k2="-1" k3="1"/>
<feColorMatrix type="matrix" values="0 0 0 0 0 0 0 0 0 0 0 0 0 0 0 0 0 0 0.25 0"/>
<feBlend mode="normal" in2="effect1_innerShadow_201_18870" result="effect2_innerShadow_201_18870"/>
</filter>
<filter id="filter1_d_201_18870" x="0.227317" y="35.8701" width="41.5852" height="37.665" filterUnits="userSpaceOnUse" color-interpolation-filters="sRGB">
<feFlood flood-opacity="0" result="BackgroundImageFix"/>
<feColorMatrix in="SourceAlpha" type="matrix" values="0 0 0 0 0 0 0 0 0 0 0 0 0 0 0 0 0 0 127 0" result="hardAlpha"/>
<feOffset dx="-0.772683" dy="1.54537"/>
<feComposite in2="hardAlpha" operator="out"/>
<feColorMatrix type="matrix" values="0 0 0 0 0.160722 0 0 0 0 0.152778 0 0 0 0 0.183333 0 0 0 1 0"/>
<feBlend mode="normal" in2="BackgroundImageFix" result="effect1_dropShadow_201_18870"/>
<feBlend mode="normal" in="SourceGraphic" in2="effect1_dropShadow_201_18870" result="shape"/>
</filter>
<linearGradient id="paint0_linear_201_18870" x1="64.1132" y1="25.0522" x2="64.1132" y2="61.172" gradientUnits="userSpaceOnUse">
<stop stop-color="#FD9A94"/>
<stop offset="1" stop-color="#FFCDC8"/>
</linearGradient>
<linearGradient id="paint1_linear_201_18870" x1="21.4063" y1="35.87" x2="21.4063" y2="71.9897" gradientUnits="userSpaceOnUse">
<stop stop-color="#C6D6D5"/>
<stop offset="0.945" stop-color="#4F7C79"/>
</linearGradient>
</defs>
</svg>
