<svg width="74" height="75" viewBox="0 0 74 75" fill="none" xmlns="http://www.w3.org/2000/svg">
<rect y="0.875" width="74" height="74" fill="white"/>
<path d="M16.1361 25.0879C15.7569 22.0539 18.1226 19.374 21.1802 19.374H62.7552C65.5627 19.374 67.8385 21.6499 67.8385 24.4574V34.7866C67.8385 37.4103 65.8419 39.6029 63.2297 39.8478L23.4124 43.5806C20.6781 43.837 18.2345 41.8751 17.8939 39.15L16.1361 25.0879Z" stroke="#578F8C" stroke-width="5.08333"/>
<path d="M16.9596 34.79L14.1275 9.30103C13.9845 8.01384 12.8965 7.04004 11.6014 7.04004H6.16797" stroke="#578F8C" stroke-width="5.08333" stroke-linecap="round"/>
<circle cx="27.7461" cy="59.457" r="6.70833" stroke="#578F8C" stroke-width="5.08333"/>
<path d="M62.2044 59.457C62.2044 63.1619 59.201 66.1654 55.4961 66.1654C51.7912 66.1654 48.7878 63.1619 48.7878 59.457C48.7878 55.7521 51.7912 52.7487 55.4961 52.7487C59.201 52.7487 62.2044 55.7521 62.2044 59.457Z" stroke="#578F8C" stroke-width="5.08333"/>
</svg>
